<svg width="16" height="15" viewBox="0 0 16 15" fill="none" xmlns="http://www.w3.org/2000/svg">
<g clip-path="url(#clip0_20_163)">
<path d="M3.55246 15V4.87953H0.158264V15H3.55246ZM1.8558 3.49692C3.03941 3.49692 3.77616 2.71978 3.77616 1.74862C3.75411 0.755565 3.03946 0 1.87826 0C0.717243 0 -0.0419922 0.75558 -0.0419922 1.74862C-0.0419922 2.71983 0.69457 3.49692 1.83364 3.49692H1.85569H1.8558ZM5.43113 15H8.82533V9.34824C8.82533 9.04576 8.84738 8.7436 8.93701 8.52738C9.18239 7.92304 9.74086 7.29712 10.6785 7.29712C11.9067 7.29712 12.3981 8.2252 12.3981 9.5857V14.9999H15.792V9.19695C15.792 6.08834 14.1175 4.64193 11.8843 4.64193C10.0533 4.64193 9.24937 5.65626 8.80274 6.34712H8.8254V4.87932H5.43121C5.47575 5.82897 5.43121 14.9998 5.43121 14.9998L5.43113 15Z" fill="white"/>
</g>
<defs>
<clipPath id="clip0_20_163">
<rect width="16" height="15" fill="white"/>
</clipPath>
</defs>
</svg>
