<svg width="35" height="35" viewBox="0 0 14 14" fill="none" xmlns="http://www.w3.org/2000/svg">
<path d="M7.11399 4.66637L7.43798 5.42419C7.45995 5.49009 7.52035 5.52853 7.58076 5.53402L8.40448 5.6109C8.58021 5.62737 8.6461 5.84154 8.5198 5.95686L7.89927 6.50052C7.84984 6.54445 7.82788 6.61035 7.84435 6.67075L8.02557 7.478C8.06401 7.64823 7.88279 7.78003 7.72903 7.69216L7.02063 7.26932C6.96572 7.23637 6.89433 7.23637 6.83941 7.26932L6.13101 7.69216C5.98274 7.78003 5.79603 7.64823 5.83447 7.478L6.01569 6.67075C6.03217 6.61035 6.0102 6.54445 5.96078 6.50052L5.34024 5.95686C5.20845 5.84154 5.27984 5.62737 5.45556 5.6109L6.27928 5.53402C6.34518 5.52853 6.4001 5.49009 6.42755 5.42968L6.75155 4.67186C6.81745 4.50712 7.0426 4.50712 7.11399 4.66637Z" stroke="#F0C932" stroke-width="0.549146" stroke-miterlimit="10" stroke-linecap="round" stroke-linejoin="round"/>
<path d="M10.6655 6.27243C10.6797 4.21009 9.01932 2.52673 6.95698 2.51254C4.89464 2.49834 3.21128 4.1587 3.19709 6.22103C3.18289 8.28337 4.84324 9.96674 6.90558 9.98093C8.96792 9.99512 10.6513 8.33477 10.6655 6.27243Z" stroke="#F0C932" stroke-width="0.549146" stroke-miterlimit="10" stroke-linecap="round" stroke-linejoin="round"/>
<path d="M6.42202 9.94366L5.49396 12.2775L4.31879 10.9321L2.54504 11.0969L3.72022 8.15344" stroke="#F0C932" stroke-width="0.549146" stroke-miterlimit="10" stroke-linecap="round" stroke-linejoin="round"/>
<path d="M7.4325 9.94366L8.36604 12.2775L9.53573 10.9321L11.315 11.0969L10.1343 8.15344" stroke="#F0C932" stroke-width="0.549146" stroke-miterlimit="10" stroke-linecap="round" stroke-linejoin="round"/>
</svg>
