<svg width="18" height="14" viewBox="0 0 18 14" fill="none" xmlns="http://www.w3.org/2000/svg">
<g clip-path="url(#clip0_20_168)">
<path d="M17.7793 1.7049C17.1124 1.98937 16.405 2.1761 15.6806 2.25887C16.4351 1.82346 17.0145 1.13398 17.2873 0.312468C16.57 0.722276 15.7853 1.01101 14.9669 1.1662C14.3004 0.482477 13.3508 0.0551758 12.2997 0.0551758C10.2817 0.0551758 8.6456 1.63041 8.6456 3.57326C8.6456 3.84904 8.67795 4.11752 8.74022 4.37508C5.70338 4.22831 3.01093 2.82771 1.20866 0.699175C0.894193 1.21878 0.714001 1.82319 0.714001 2.46786C0.714001 3.68848 1.35915 4.76527 2.33956 5.39621C1.75929 5.37871 1.19179 5.22781 0.684432 4.95611C0.684224 4.97085 0.684224 4.98559 0.684224 5.00039C0.684224 6.70497 1.94376 8.12694 3.61531 8.45015C3.07723 8.59105 2.51281 8.61167 1.96519 8.51044C2.43014 9.90816 3.77964 10.9253 5.37855 10.9537C4.12799 11.8973 2.55238 12.4598 0.840483 12.4598C0.545496 12.4598 0.254684 12.4431 -0.031189 12.4106C1.58588 13.4088 3.50657 13.9913 5.57008 13.9913C12.2913 13.9913 15.9666 8.63034 15.9666 3.98127C15.9666 3.82868 15.9631 3.67695 15.956 3.5261C16.6714 3.02819 17.2888 2.41147 17.7793 1.7049Z" fill="white"/>
</g>
<defs>
<clipPath id="clip0_20_168">
<rect width="18" height="14" fill="white"/>
</clipPath>
</defs>
</svg>
