<svg width="16" height="16" viewBox="0 0 16 16" fill="none" xmlns="http://www.w3.org/2000/svg">
<path d="M7.87705 3.95708C5.62953 3.95708 3.81667 5.76059 3.81667 7.99653C3.81667 10.2325 5.62953 12.036 7.87705 12.036C10.1246 12.036 11.9374 10.2325 11.9374 7.99653C11.9374 5.76059 10.1246 3.95708 7.87705 3.95708ZM7.87705 10.6227C6.42464 10.6227 5.23727 9.44497 5.23727 7.99653C5.23727 6.54809 6.42111 5.37036 7.87705 5.37036C9.33298 5.37036 10.5168 6.54809 10.5168 7.99653C10.5168 9.44497 9.32945 10.6227 7.87705 10.6227ZM13.0506 3.79184C13.0506 4.31567 12.6265 4.73403 12.1035 4.73403C11.577 4.73403 11.1564 4.31216 11.1564 3.79184C11.1564 3.27153 11.5805 2.84966 12.1035 2.84966C12.6265 2.84966 13.0506 3.27153 13.0506 3.79184ZM15.7398 4.74809C15.6797 3.48598 15.39 2.36802 14.4606 1.44692C13.5347 0.52583 12.411 0.237549 11.1423 0.174268C9.83479 0.100439 5.91577 0.100439 4.60825 0.174268C3.34314 0.234033 2.21938 0.522314 1.28998 1.44341C0.360585 2.3645 0.0743449 3.48247 0.010736 4.74458C-0.0634745 6.04536 -0.0634745 9.94418 0.010736 11.245C0.0708111 12.5071 0.360585 13.625 1.28998 14.5461C2.21938 15.4672 3.33961 15.7555 4.60825 15.8188C5.91577 15.8926 9.83479 15.8926 11.1423 15.8188C12.411 15.759 13.5347 15.4707 14.4606 14.5461C15.3864 13.625 15.6762 12.5071 15.7398 11.245C15.814 9.94418 15.814 6.04887 15.7398 4.74809ZM14.0507 12.6407C13.775 13.3297 13.2414 13.8606 12.5452 14.1383C11.5028 14.5497 9.02908 14.4547 7.87705 14.4547C6.72502 14.4547 4.2478 14.5461 3.20885 14.1383C2.51622 13.8641 1.98261 13.3332 1.70344 12.6407C1.28998 11.6036 1.3854 9.14262 1.3854 7.99653C1.3854 6.85044 1.29352 4.38598 1.70344 3.35239C1.97908 2.66333 2.51269 2.13247 3.20885 1.85474C4.25133 1.44341 6.72502 1.53833 7.87705 1.53833C9.02908 1.53833 11.5063 1.44692 12.5452 1.85474C13.2379 2.12895 13.7715 2.65981 14.0507 3.35239C14.4641 4.3895 14.3687 6.85044 14.3687 7.99653C14.3687 9.14262 14.4641 11.6071 14.0507 12.6407Z" fill="white"/>
</svg>
